<?xml version="1.0" encoding="utf-8"?>
<!-- Generator: Adobe Illustrator 24.3.0, SVG Export Plug-In . SVG Version: 6.00 Build 0)  -->
<svg version="1.0" id="Layer_1" xmlns="http://www.w3.org/2000/svg" xmlns:xlink="http://www.w3.org/1999/xlink" x="0px" y="0px"
	 viewBox="0 0 145.84 143.04" style="enable-background:new 0 0 145.84 143.04;" xml:space="preserve">
<style type="text/css">
	.st0{fill-rule:evenodd;clip-rule:evenodd;fill:#1A2E45;}
	.st1{fill-rule:evenodd;clip-rule:evenodd;fill:#26B1FB;}
	.st2{fill-rule:evenodd;clip-rule:evenodd;fill:#81CE00;}
	.st3{opacity:0.5;fill-rule:evenodd;clip-rule:evenodd;fill:#FFFFFF;}
	.st4{fill-rule:evenodd;clip-rule:evenodd;fill:#FF0000;}
</style>
<path class="st0" d="M72.93,7.11c0.34-0.39,0.71-0.75,1.1-1.09c6.82-5.85,20.03-2.94,25.31,3.78c0.54,0.68,1.01,1.41,1.42,2.17
	l0.32-0.08c4.24-1.05,8.57-0.63,12.51,1.26c4.28,2.06,7.69,5.64,10,9.75c1.63,2.9,2.82,6.31,3.26,9.77l1.99,0.81
	c5.1,2.08,8.13,7.2,9.4,12.34c1.4,5.64,0.92,11.9-1.39,17.23l-0.27,0.64c2.55,2.66,4.33,6.11,5.33,9.62
	c1.76,6.25,1.25,13.19-1.82,18.95c-1.31,2.46-2.99,5.03-5.32,6.64l0.01,1.26c0.08,11.28-8.16,25.02-20,26.69l-2.06,0.29
	c-1.04,2.55-2.65,4.88-4.78,6.8c-7.79,6.99-19.8,8.28-28.79,2.85c-1.81-1.1-3.37-2.49-4.62-4.2c-0.63-0.87-1.16-1.79-1.6-2.75
	c-0.44,0.96-0.97,1.88-1.6,2.75c-1.25,1.71-2.81,3.11-4.62,4.2c-8.99,5.43-21,4.15-28.79-2.85c-2.14-1.92-3.74-4.25-4.78-6.8
	l-2.06-0.29c-11.83-1.67-20.07-15.41-20-26.69l0.01-1.26c-2.33-1.61-4.01-4.18-5.32-6.64c-3.06-5.76-3.58-12.7-1.81-18.95
	c0.99-3.51,2.77-6.96,5.32-9.62l-0.27-0.64c-2.3-5.34-2.78-11.6-1.39-17.23C8.87,40.7,11.9,35.57,17,33.49l1.99-0.81
	c0.44-3.47,1.63-6.87,3.26-9.77c4.57-8.12,13.05-13.34,22.51-11.01l0.32,0.08c0.41-0.76,0.89-1.49,1.42-2.17
	c2.51-3.2,6.53-5.28,10.42-6.26C62.41,2.18,69.11,2.73,72.93,7.11L72.93,7.11z"/>
<path class="st1" d="M49.34,12.02c-3.46,4.41-3.38,10.56,5.01,14.97c-6.89-1.33-10.9-4.6-10.44-11.61
	c-18.84-4.65-30.19,27.19-13.13,32.44c5.48,1.68,9.81-1.54,12.53-6.04c-0.34,1.5-0.77,2.9-1.44,4.11c-2.74,4.97-2.94,3.75-1.63,9.2
	c0.51,2.11,0.59,4.73,0.08,8.29c-2.55-19.32-12.48-3.32-21.95-26.57c-7.12,2.9-10.24,15.16-6.07,24.82
	c4.65-1.62,8.64-1.85,12.23,1.61C11.11,58.17,1.94,77.45,8.92,90.58c3.05,5.73,6.64,8.72,12.45,4.12c7.57-6,0.08-18.84,13.87-19.99
	c-6.8,3.6-7.67,8.37-6.59,13.43c0.7,3.3-4.78,7.59,5.17,10.03c-4.12,1.78-10.38-2.14-19.15,2.02c-0.07,10.4,7.65,21.8,16.91,23.11
	c2.29-26,19.1-14.65,24.94-25.43c-1.46,7.04-2.95,8.29,1.5,16.41c-15.88-20.99-30.77,5.26-17.7,17c6.91,6.2,17.22,6.86,24.53,2.44
	c1.47-0.89,2.65-1.96,3.58-3.24c2.1-2.88,2.93-6.78,2.92-11.83c-0.04-27.41-0.09-51.82-0.13-79.23c-0.01-5.6-4.82-10.04-10.98-4.09
	c-0.29-6.52,10.98-4.68,10.98-11.31V10.91C67.45,3.78,54.03,6.04,49.34,12.02L49.34,12.02z"/>
<path class="st2" d="M96.5,12.02c3.46,4.41,3.38,10.56-5.01,14.97c6.89-1.33,10.9-4.6,10.44-11.61
	c18.84-4.65,30.19,27.19,13.13,32.44c-5.48,1.68-9.81-1.54-12.53-6.04c0.34,1.5,0.77,2.9,1.44,4.11c2.74,4.97,2.94,3.75,1.63,9.2
	c-0.51,2.11-0.59,4.73-0.08,8.29c2.55-19.32,12.48-3.32,21.95-26.57c7.12,2.9,10.24,15.16,6.07,24.82
	c-4.65-1.62-8.64-1.85-12.23,1.61c13.41-5.08,22.57,14.2,15.59,27.33c-3.05,5.73-6.64,8.72-12.45,4.12
	c-7.57-6-0.08-18.84-13.87-19.99c6.8,3.6,7.67,8.37,6.59,13.43c-0.7,3.3,4.78,7.59-5.17,10.03c4.12,1.78,10.38-2.14,19.15,2.02
	c0.07,10.4-7.65,21.8-16.91,23.11c-2.29-26-19.1-14.65-24.94-25.43c1.46,7.04,2.95,8.29-1.5,16.41c15.88-20.99,30.77,5.26,17.7,17
	c-6.91,6.2-17.22,6.86-24.53,2.44c-1.47-0.89-2.65-1.96-3.58-3.24c-2.1-2.88-2.93-6.78-2.92-11.83c0.04-27.41,0.09-51.82,0.13-79.23
	c0.01-5.6,4.82-10.04,10.98-4.09c0.29-6.52-10.98-4.68-10.98-11.31V10.91C78.39,3.78,91.81,6.04,96.5,12.02L96.5,12.02z"/>
<path class="st3" d="M111.39,40.38c1.8-0.8,3.01-2.06,3.79-3.52c1.29-2.45,3.75-0.28,2.39,3.02
	C114.45,47.48,105.59,42.95,111.39,40.38L111.39,40.38z M126.7,88.98c1.38,0.18,2.26-0.69,3.15-2.03c1.08-1.64,4.59-2.1,2.14,2.46
	C127.44,97.86,121.47,88.29,126.7,88.98z M108.34,78.5c4.05,2.4,8.24,10.42,1.19,5.16c-0.58-0.43-1.21-0.84-1.89-1.23
	C103.89,80.26,104.54,76.25,108.34,78.5z M85.34,126.93c3.95,0.77,8.19,0.15,11.77-1.75c5.92-3.14,6.75,2,2.66,4.83
	c-4.29,2.96-10.19,3.58-15.21,1.9C81.59,130.92,79.14,125.72,85.34,126.93z M34.45,40.38c-1.8-0.8-3.01-2.06-3.79-3.52
	c-1.29-2.45-3.75-0.28-2.39,3.02C31.39,47.48,40.25,42.95,34.45,40.38z M19.14,88.98c-1.38,0.18-2.26-0.69-3.15-2.03
	c-1.08-1.64-4.59-2.1-2.14,2.46C18.4,97.86,24.37,88.29,19.14,88.98z M37.5,78.5c-4.05,2.4-8.24,10.42-1.19,5.16
	c0.58-0.43,1.21-0.84,1.89-1.23C41.95,80.26,41.3,76.25,37.5,78.5z M60.5,126.93c-3.95,0.77-8.19,0.15-11.77-1.75
	c-5.92-3.14-6.75,2-2.66,4.83c4.29,2.96,10.19,3.58,15.21,1.9C64.25,130.92,66.7,125.72,60.5,126.93z M57.37,15.96
	c2.82-1.7,5.4-2.33,8.63-2.33c4.73,0,1.93-4.81-5.64-3.04c-1.48,0.35-3.2,0.99-4.66,1.92C51.58,15.17,53.39,18.36,57.37,15.96z
	 M88.47,15.96c-2.82-1.7-5.4-2.33-8.63-2.33c-4.73,0-1.93-4.81,5.64-3.04c1.48,0.35,3.2,0.99,4.66,1.92
	C94.27,15.17,92.45,18.36,88.47,15.96z"/>
<path class="st0" d="M83.83,60.61h9.95c2.57,0,4.67,2.1,4.67,4.67v12.47c0,2.57-2.1,4.67-4.67,4.67h-9.95v9.95
	c0,2.57-2.1,4.67-4.67,4.67H66.69c-2.57,0-4.67-2.1-4.67-4.67v-9.95h-9.95c-2.57,0-4.67-2.1-4.67-4.67V65.28
	c0-2.57,2.1-4.67,4.67-4.67h9.95v-9.95c0-2.57,2.1-4.67,4.67-4.67h12.47c2.57,0,4.67,2.1,4.67,4.67V60.61z"/>
<path class="st4" d="M66.69,49.58c-0.59,0-1.08,0.49-1.08,1.08v13.55H52.06c-0.59,0-1.08,0.49-1.08,1.08v12.47
	c0,0.59,0.49,1.08,1.08,1.08h13.55v13.55c0,0.59,0.49,1.08,1.08,1.08h12.47c0.59,0,1.08-0.49,1.08-1.08V78.83h13.55
	c0.59,0,1.08-0.49,1.08-1.08V65.28c0-0.59-0.49-1.08-1.08-1.08H80.23V50.66c0-0.59-0.49-1.08-1.08-1.08H66.69z"/>
</svg>
