<svg xmlns="http://www.w3.org/2000/svg" width="15.921" height="15.922" viewBox="0 0 15.921 15.922">
  <path id="loading" d="M253.151,288.478a2.537,2.537,0,0,1-.976-.185,3.671,3.671,0,0,1-1.658-1.7,3.961,3.961,0,0,0-.484-.7,4.2,4.2,0,0,0-.745-.514,2.928,2.928,0,0,1-1.645-3.94,4.189,4.189,0,0,0,.158-.891,3.935,3.935,0,0,0-.161-.84,2.987,2.987,0,0,1,1.658-4.035,3.96,3.96,0,0,0,.7-.484,4.192,4.192,0,0,0,.514-.745,2.928,2.928,0,0,1,3.941-1.646,4.219,4.219,0,0,0,.887.158h0a3.948,3.948,0,0,0,.839-.16,3.668,3.668,0,0,1,2.378-.047h0a3.674,3.674,0,0,1,1.658,1.7,3.963,3.963,0,0,0,.483.7,4.224,4.224,0,0,0,.745.514,2.927,2.927,0,0,1,1.645,3.94,4.193,4.193,0,0,0-.158.891,3.945,3.945,0,0,0,.16.839,2.987,2.987,0,0,1-1.658,4.036,3.962,3.962,0,0,0-.7.484,4.185,4.185,0,0,0-.514.745,2.927,2.927,0,0,1-3.94,1.645,4.715,4.715,0,0,0-.891-.158,3.981,3.981,0,0,0-.839.161A5.625,5.625,0,0,1,253.151,288.478Zm-.053-13.919a.536.536,0,0,0-.2.032c-.212.088-.459.5-.676.865a5.745,5.745,0,0,1-.809,1.124,5.366,5.366,0,0,1-1.092.787c-.389.233-.791.474-.888.71a2.312,2.312,0,0,0,.133,1.129,5.368,5.368,0,0,1,.223,1.327,5.7,5.7,0,0,1-.215,1.369,2.421,2.421,0,0,0-.127,1.09c.088.211.5.459.865.677a5.722,5.722,0,0,1,1.125.81,5.354,5.354,0,0,1,.787,1.091c.232.389.473.791.709.888a2.3,2.3,0,0,0,1.129-.133,5.351,5.351,0,0,1,1.327-.223h.01a5.747,5.747,0,0,1,1.358.215,2.431,2.431,0,0,0,1.091.127c.211-.088.458-.5.676-.864a5.719,5.719,0,0,1,.81-1.125,5.369,5.369,0,0,1,1.092-.787c.389-.233.791-.474.888-.709a2.317,2.317,0,0,0-.133-1.13,5.378,5.378,0,0,1-.223-1.327,5.678,5.678,0,0,1,.215-1.369,2.423,2.423,0,0,0,.127-1.09c-.088-.211-.5-.458-.865-.677a5.7,5.7,0,0,1-1.124-.809,5.366,5.366,0,0,1-.787-1.092c-.232-.389-.474-.791-.709-.888a2.319,2.319,0,0,0-1.129.133,5.37,5.37,0,0,1-1.328.223h-.009a5.754,5.754,0,0,1-1.359-.215A4.353,4.353,0,0,0,253.1,274.558Z" transform="translate(-247.41 -272.556)" fill="#96b3b7"/>
</svg>
