<svg xmlns="http://www.w3.org/2000/svg" width="245.561" height="35.493" viewBox="0 0 245.561 35.493">
  <g id="Group_593" data-name="Group 593" transform="translate(-247.41 -272.556)">
    <g id="Group_591" data-name="Group 591" transform="translate(247.41 272.556)">
      <g id="Group_589" data-name="Group 589">
        <path id="Path_602" data-name="Path 602" d="M258.735,303.961a5,5,0,0,1-1.924-.364,7.243,7.243,0,0,1-3.271-3.362,7.81,7.81,0,0,0-.954-1.389,8.3,8.3,0,0,0-1.47-1.014,5.776,5.776,0,0,1-3.245-7.772,8.267,8.267,0,0,0,.312-1.757,7.768,7.768,0,0,0-.317-1.656,5.892,5.892,0,0,1,3.271-7.96,7.809,7.809,0,0,0,1.389-.954,8.268,8.268,0,0,0,1.014-1.469,5.775,5.775,0,0,1,7.773-3.246,8.319,8.319,0,0,0,1.75.312h.007a7.8,7.8,0,0,0,1.655-.316,7.233,7.233,0,0,1,4.69-.092h0a7.247,7.247,0,0,1,3.271,3.363,7.8,7.8,0,0,0,.954,1.389,8.324,8.324,0,0,0,1.47,1.013,5.774,5.774,0,0,1,3.245,7.772,8.267,8.267,0,0,0-.312,1.758,7.792,7.792,0,0,0,.316,1.655,5.892,5.892,0,0,1-3.27,7.961,7.821,7.821,0,0,0-1.388.954,8.248,8.248,0,0,0-1.015,1.47,5.774,5.774,0,0,1-7.772,3.245,9.3,9.3,0,0,0-1.757-.312,7.86,7.86,0,0,0-1.656.317A11.1,11.1,0,0,1,258.735,303.961Zm-.1-27.455a1.059,1.059,0,0,0-.4.062c-.417.174-.9.988-1.334,1.706a11.323,11.323,0,0,1-1.6,2.218,10.585,10.585,0,0,1-2.154,1.552c-.767.46-1.561.935-1.752,1.4a4.561,4.561,0,0,0,.262,2.227,10.594,10.594,0,0,1,.439,2.618,11.253,11.253,0,0,1-.424,2.7,4.775,4.775,0,0,0-.25,2.15c.174.417.988.9,1.706,1.335a11.287,11.287,0,0,1,2.218,1.6,10.565,10.565,0,0,1,1.553,2.153c.458.768.933,1.561,1.4,1.752a4.542,4.542,0,0,0,2.227-.262,10.557,10.557,0,0,1,2.618-.44h.02a11.339,11.339,0,0,1,2.679.424,4.8,4.8,0,0,0,2.152.25c.416-.174.9-.987,1.333-1.705a11.278,11.278,0,0,1,1.6-2.219,10.578,10.578,0,0,1,2.153-1.552c.768-.459,1.561-.934,1.752-1.4a4.566,4.566,0,0,0-.262-2.228,10.618,10.618,0,0,1-.439-2.617,11.209,11.209,0,0,1,.424-2.7,4.778,4.778,0,0,0,.25-2.151c-.173-.416-.988-.9-1.706-1.334a11.232,11.232,0,0,1-2.217-1.6,10.584,10.584,0,0,1-1.553-2.154c-.458-.767-.934-1.561-1.4-1.752a4.573,4.573,0,0,0-2.227.262,10.587,10.587,0,0,1-2.619.439h-.018a11.348,11.348,0,0,1-2.681-.424A8.6,8.6,0,0,0,258.631,276.506Z" transform="translate(-247.41 -272.556)" fill="#1e242a"/>
      </g>
      <g id="Group_590" data-name="Group 590" transform="translate(27.317 27.318)">
        <path id="Path_603" data-name="Path 603" d="M292.183,319.341a2.007,2.007,0,0,1-1.421-.589l-4.154-4.154a2.011,2.011,0,0,1,2.843-2.844l4.155,4.155a2.011,2.011,0,0,1-1.422,3.432Z" transform="translate(-286.018 -311.166)" fill="#1e242a"/>
      </g>
    </g>
    <g id="Group_592" data-name="Group 592" transform="translate(291.124 276.931)">
      <path id="Path_604" data-name="Path 604" d="M324.634,280.139V283.4h-5.681v17.3h-4.106V283.4h-5.652v-3.263Z" transform="translate(-309.194 -279.149)" fill="#1e242a"/>
      <path id="Path_605" data-name="Path 605" d="M340.725,286.956a6.344,6.344,0,0,1,3.32-.888v4.4h-1.2q-4.515,0-4.514,4.195v7.779h-4.108V286.3h4.108v3.088A6.745,6.745,0,0,1,340.725,286.956Z" transform="translate(-316.516 -280.883)" fill="#1e242a"/>
      <path id="Path_606" data-name="Path 606" d="M360.794,287.071a5.238,5.238,0,0,1,2.068,2.593v-3.351h4.077v16.139h-4.077v-3.38a5.313,5.313,0,0,1-2.068,2.607,6.134,6.134,0,0,1-3.5.976,6.926,6.926,0,0,1-3.67-.99,6.685,6.685,0,0,1-2.549-2.869,11.072,11.072,0,0,1,0-8.827,6.68,6.68,0,0,1,2.549-2.869,6.926,6.926,0,0,1,3.67-.991A6.2,6.2,0,0,1,360.794,287.071Zm-5.3,3.874a4.85,4.85,0,0,0-1.165,3.437,4.793,4.793,0,0,0,1.165,3.423,4.413,4.413,0,0,0,6.161-.029,5.409,5.409,0,0,0,0-6.817,4.066,4.066,0,0,0-3.073-1.267A4.018,4.018,0,0,0,355.492,290.945Z" transform="translate(-321.176 -280.895)" fill="#1e242a"/>
      <path id="Path_607" data-name="Path 607" d="M391.265,287.8a7.382,7.382,0,0,1,2.607,4.6h-4.341a3.351,3.351,0,0,0-1.2-2.025,3.671,3.671,0,0,0-2.359-.743,3.519,3.519,0,0,0-2.724,1.209,6.28,6.28,0,0,0,0,7.079,3.517,3.517,0,0,0,2.724,1.209,3.663,3.663,0,0,0,2.359-.744,3.347,3.347,0,0,0,1.2-2.024h4.341a7.384,7.384,0,0,1-2.607,4.6,7.988,7.988,0,0,1-5.2,1.69,8.6,8.6,0,0,1-4.195-1,7.063,7.063,0,0,1-2.854-2.87,10.023,10.023,0,0,1,0-8.812,6.941,6.941,0,0,1,2.854-2.869,8.688,8.688,0,0,1,4.195-.991A7.988,7.988,0,0,1,391.265,287.8Z" transform="translate(-329.316 -280.895)" fill="#1e242a"/>
      <path id="Path_608" data-name="Path 608" d="M413.989,300.3l-5.331-7.05v7.05h-4.108V278.74h4.108v12.118l5.3-6.7h4.865l-6.788,8.041L419,300.3Z" transform="translate(-337.083 -278.74)" fill="#1e242a"/>
      <path id="Path_609" data-name="Path 609" d="M446.228,287.071a5.236,5.236,0,0,1,2.069,2.593v-3.351h4.078v16.139H448.3v-3.38a5.31,5.31,0,0,1-2.069,2.607,6.13,6.13,0,0,1-3.5.976,6.927,6.927,0,0,1-3.67-.99,6.686,6.686,0,0,1-2.549-2.869,11.072,11.072,0,0,1,0-8.827,6.681,6.681,0,0,1,2.549-2.869,6.926,6.926,0,0,1,3.67-.991A6.2,6.2,0,0,1,446.228,287.071Zm-5.3,3.874a4.85,4.85,0,0,0-1.165,3.437,4.793,4.793,0,0,0,1.165,3.423,4.413,4.413,0,0,0,6.161-.029,5.409,5.409,0,0,0,0-6.817,4.066,4.066,0,0,0-3.074-1.267A4.018,4.018,0,0,0,440.926,290.945Z" transform="translate(-346.163 -280.895)" fill="#1e242a"/>
      <path id="Path_610" data-name="Path 610" d="M488.02,291.864a5.007,5.007,0,0,1,1.121,3.248,5.133,5.133,0,0,1-1.733,4.093,7.466,7.466,0,0,1-5.026,1.5h-8.826V280.139h8.652A7.4,7.4,0,0,1,487,281.508a4.689,4.689,0,0,1,1.675,3.846,4.8,4.8,0,0,1-1,3.146,4.676,4.676,0,0,1-2.637,1.6A4.992,4.992,0,0,1,488.02,291.864Zm-10.356-3.1h3.7a3.521,3.521,0,0,0,2.345-.684,2.444,2.444,0,0,0,.8-1.966,2.514,2.514,0,0,0-.786-1.982,3.567,3.567,0,0,0-2.418-.7h-3.641Zm6.409,7.88a2.532,2.532,0,0,0,.874-2.083,2.6,2.6,0,0,0-.889-2.111,3.821,3.821,0,0,0-2.519-.743h-3.874v5.652h3.9A3.869,3.869,0,0,0,484.073,296.641Z" transform="translate(-357.265 -279.149)" fill="#1e242a"/>
      <path id="Path_611" data-name="Path 611" d="M506.156,286.956a6.344,6.344,0,0,1,3.32-.888v4.4h-1.2q-4.515,0-4.514,4.195v7.779H499.66V286.3h4.108v3.088A6.745,6.745,0,0,1,506.156,286.956Z" transform="translate(-364.9 -280.883)" fill="#1e242a"/>
      <path id="Path_612" data-name="Path 612" d="M526.226,287.071a5.237,5.237,0,0,1,2.068,2.593v-3.351h4.078v16.139h-4.078v-3.38a5.312,5.312,0,0,1-2.068,2.607,6.134,6.134,0,0,1-3.5.976,6.93,6.93,0,0,1-3.67-.99,6.687,6.687,0,0,1-2.549-2.869,11.073,11.073,0,0,1,0-8.827,6.682,6.682,0,0,1,2.549-2.869,6.929,6.929,0,0,1,3.67-.991A6.2,6.2,0,0,1,526.226,287.071Zm-5.3,3.874a4.854,4.854,0,0,0-1.165,3.437,4.8,4.8,0,0,0,1.165,3.423,4.414,4.414,0,0,0,6.162-.029,5.411,5.411,0,0,0,0-6.817,4.069,4.069,0,0,0-3.074-1.267A4.018,4.018,0,0,0,520.924,290.945Z" transform="translate(-369.56 -280.895)" fill="#1e242a"/>
      <path id="Path_613" data-name="Path 613" d="M558.65,287.9a7.415,7.415,0,0,1,1.66,5.156v9.38h-4.078v-8.914a4.213,4.213,0,0,0-.99-2.986,3.52,3.52,0,0,0-2.709-1.063,3.618,3.618,0,0,0-2.8,1.136,4.639,4.639,0,0,0-1.049,3.262v8.565h-4.108V286.3h4.108v3.234a5.13,5.13,0,0,1,2.111-2.549,6.277,6.277,0,0,1,3.394-.918A5.717,5.717,0,0,1,558.65,287.9Z" transform="translate(-378.038 -280.883)" fill="#1e242a"/>
      <path id="Path_614" data-name="Path 614" d="M581.383,284.915a5.433,5.433,0,0,1,2.083,2.593V278.74h4.077V300.3h-4.077v-3.38a5.512,5.512,0,0,1-2.083,2.607,6.066,6.066,0,0,1-3.482.976,6.931,6.931,0,0,1-3.671-.991,6.694,6.694,0,0,1-2.549-2.869,11.073,11.073,0,0,1,0-8.827,6.69,6.69,0,0,1,2.549-2.869,6.93,6.93,0,0,1,3.671-.991A6.135,6.135,0,0,1,581.383,284.915ZM576.1,288.79a4.85,4.85,0,0,0-1.166,3.437,4.793,4.793,0,0,0,1.166,3.423,4.412,4.412,0,0,0,6.161-.029,5.409,5.409,0,0,0,0-6.817,4.066,4.066,0,0,0-3.073-1.267A4.016,4.016,0,0,0,576.1,288.79Z" transform="translate(-385.696 -278.74)" fill="#1e242a"/>
    </g>
  </g>
</svg>
